<?xml version="1.0" encoding="utf-8"?>
<!-- Generator: Adobe Illustrator 24.1.3, SVG Export Plug-In . SVG Version: 6.00 Build 0)  -->
<svg version="1.1" id="Layer_1" xmlns="http://www.w3.org/2000/svg" xmlns:xlink="http://www.w3.org/1999/xlink" x="0px" y="0px"
	 viewBox="0 0 263 36.8" style="enable-background:new 0 0 263 36.8;" xml:space="preserve">
<style type="text/css">
	.st0{fill:#EF3E43;}
</style>
<g>
	<path d="M17.2,24.2c-0.9,0-1.4,0.5-1.4,1.5v1.6c0,1.2,0.5,1.7,1.6,1.7s0.9,0,1.6-0.1c0.8-0.1,1.4-0.2,1.9-0.2
		c0.9,0,1.6,0.3,2.1,0.9s0.8,1.5,0.8,2.5s-0.3,2.1-1,2.8c-0.7,0.7-1.6,1-2.7,1s-2.4,0-4.3-0.3c-1.9-0.2-3.4-0.3-4.3-0.3
		c-1.5,0-2.8,0-3.8,0.2l-2.6,0.3c-0.7,0-1.2,0.1-1.4,0.1c-1.1,0-2-0.4-2.7-1c-0.7-0.7-1-1.6-1-2.8s0.3-1.8,0.8-2.5s1.2-1,2-1
		s0.7,0,1.3,0.2c0.6,0.1,1,0.2,1.2,0.2c0.9,0,1.4-1.2,1.4-3.6V10.9c0-1.1,0-1.8-0.1-2.1C6.4,7.9,6,7.4,5.3,7.4s-0.7,0-1.2,0.2
		c-0.5,0.1-1,0.2-1.3,0.2c-0.8,0-1.5-0.3-2-1S0,5.3,0,4.3s0.3-2.1,1-2.8c0.7-0.7,1.6-1.1,2.7-1.1h0.2c0,0,0.1,0,0.2,0
		c0.8,0,2.1,0,3.8,0.3c1.7,0.2,3,0.3,3.9,0.3c1.7,0,3.5,0,5.5-0.2c2.5-0.2,3.9-0.4,4.3-0.4c3.8,0,6.9,1.1,9.2,3.2
		c2.3,2.1,3.5,5,3.5,8.5s-1.2,6.5-3.6,8.6s-5.7,3.2-9.9,3.2h-3.4L17.2,24.2z M15.7,15.3c0,1,0,1.6,0.3,1.8c0.2,0.2,0.6,0.4,1.4,0.4
		h0.8c4.1,0.2,6.2-1.4,6.2-4.9s-1.8-5-5.5-5s-1.5,0-1.9,0.2c-0.6,0.2-1,0.6-1.1,1.3c0,0.4-0.1,0.9-0.1,1.6v4.7L15.7,15.3z"/>
	<path d="M55,7.3c-1.1,0-1.9,0.1-2.3,0.3c-0.5,0.3-0.8,1-0.8,2.1v2.9c0,0.6,0,1,0.2,1.3s0.6,0.4,1.2,0.4c1.5,0,2.2-0.6,2.2-1.7v-1.5
		c0-1.5,0.9-2.2,2.6-2.2s2.7,0.9,2.7,2.7s0,1-0.1,1.6c-0.2,1.2-0.3,2.2-0.3,3.2s0,2.1,0.2,3.4c0.1,1.4,0.2,2.4,0.2,2.9
		c0,2.1-0.9,3.1-2.8,3.1s-2.6-0.9-2.6-2.7c0-0.2,0-0.3,0-0.3v-1.3c0-0.8-0.7-1.3-2.2-1.3s-1.5,0.6-1.5,1.7v3.9c0,1.2,0.2,2,0.7,2.5
		c0.4,0.4,1.2,0.7,2.4,0.7h3c2.2,0,3.8-0.2,4.7-0.6c0.9-0.4,1.3-1.1,1.3-2s0-1.1-0.2-1.7c-0.1-0.7-0.1-1.2-0.1-1.7
		c0-1.3,0.4-2.3,1.1-3s1.7-1.1,3-1.1c2.5,0,3.8,1.4,3.8,4.2s0,1.9-0.2,2.9c-0.2,1.7-0.3,2.7-0.3,3.1s0,1.1,0.3,2.2
		c0.1,0.7,0.2,1.3,0.2,2c0,1.6-1,2.5-3.1,2.5s-1.8,0-3.3-0.2c-2.5-0.2-6.6-0.3-12.2-0.4h-4.6c-1.7,0-3.2,0-4.3,0.2l-4,0.3
		c0,0-0.1,0-0.2,0h-0.3c-1.1,0-2-0.4-2.6-1.1c-0.7-0.7-1-1.7-1-2.8s0.3-1.8,0.8-2.5s1.2-1,2.1-1s0.7,0,1.3,0.2
		c0.6,0.1,1,0.2,1.2,0.2c0.9,0,1.4-1.2,1.4-3.5V10.8c0-2.3-0.5-3.5-1.4-3.5s-0.6,0-1.2,0.2c-0.5,0.1-0.8,0.1-1.2,0.1
		c-0.8,0-1.5-0.3-2-1C36.2,5.9,36,5.1,36,4.1c0-2.5,1.3-3.8,3.8-3.8s1.8,0,3.6,0.2c2.7,0.2,5.4,0.3,7.9,0.3s2.3,0,6.3-0.1
		c2.9,0,4.7-0.1,5.7-0.2c1.5-0.1,3.1-0.2,4.7-0.2s2.9,0.9,2.9,2.6s0,1.4-0.2,2.5s-0.2,1.9-0.2,2.5s0,1.3,0.2,2.4
		c0.2,1,0.2,1.8,0.2,2.3c0,1-0.4,1.9-1.1,2.6c-0.8,0.7-1.7,1-2.8,1c-2.6,0-3.9-1.3-3.9-4s0-1.1,0.3-1.9c0.2-0.8,0.3-1.4,0.3-1.8
		c0-0.8-0.4-1.2-1.2-1.4c-0.3,0-1-0.1-2.2-0.1h-5.2L55,7.3z"/>
	<path d="M85.7,29.1c1.2,0,1.8-1.1,1.8-3.2v-15c0-2.3-0.9-3.5-2.6-3.5S82.3,8,82.3,9.2s0,0.9,0.2,1.6c0.1,0.7,0.2,1.3,0.2,1.6
		c0,3.1-1.3,4.7-3.9,4.7s-2.2-0.4-2.9-1.2c-0.7-0.8-1-1.8-1-3.2s0-1.3,0.2-2.5c0.1-0.9,0.2-1.7,0.2-2.5s0-1.3-0.2-2.6
		C75.1,4.2,75,3.5,75,3c0-1.5,0.8-2.3,2.3-2.3s1.8,0,3,0.2c2.8,0.3,6.7,0.4,11.8,0.4s9-0.1,11.8-0.4c1.2-0.1,2.2-0.2,3-0.2
		c1.6,0,2.4,0.8,2.4,2.3s0,1.3-0.2,2.3c-0.1,1-0.2,1.8-0.2,2.3s0,1.4,0.2,2.5c0.1,1.5,0.2,2.3,0.2,2.5c0,1.3-0.4,2.4-1.1,3.1
		c-0.7,0.8-1.7,1.2-2.8,1.2c-2.6,0-3.9-1.5-3.9-4.5s0-1,0.2-1.7c0.1-0.7,0.2-1.2,0.2-1.6c0-1.3-0.8-1.9-2.3-1.9S97.9,7.5,97.5,8
		s-0.6,1.4-0.6,2.7v15c0,2.2,0.6,3.2,1.8,3.2s0.9,0,1.7-0.2c0.7-0.1,1.3-0.2,1.7-0.2c2.1,0,3.1,1,3.1,3.1s-1.3,4.1-3.9,4.1
		s-2.2,0-3.6-0.2c-2.1-0.2-3.9-0.3-5.4-0.3s-3.3,0.1-5.4,0.3c-1.4,0.1-2.6,0.2-3.6,0.2c-2.6,0-3.9-1.3-3.9-3.8s1.1-3.4,3.2-3.4
		s1,0,1.7,0.2c0.7,0.1,1.3,0.2,1.7,0.2L85.7,29.1z"/>
	<path d="M137.6,0c3.6,0,6.5,1.2,8.6,3.7c0-1.2,0.3-2,0.7-2.5c0.4-0.5,1.2-0.7,2.3-0.7c2.2,0,3.3,0.9,3.3,2.8s0,1.3-0.2,2.3
		c-0.1,1-0.2,1.8-0.2,2.3s0,0.8,0.1,1.4c0,0.6,0.1,1,0.1,1.4V11c0,2.1-1.2,3.1-3.6,3.1s-3.2-0.8-3.6-2.5l-0.3-1.1
		c-0.5-2.3-2.4-3.4-5.5-3.4s-4.5,1-4.5,3.1s0.3,1.8,1,2.2c0.6,0.4,2.3,0.8,4.9,1.4c4.4,0.9,7.6,2.2,9.6,3.9c2,1.7,3,4.1,3,7.1
		s-1.2,6.4-3.6,8.6s-5.5,3.4-9.2,3.4s-6.1-1.1-8.9-3.3c-0.1,1.9-1.2,2.9-3.1,2.9s-3.4-1.1-3.4-3.3s0-1.5,0.2-2.4
		c0.1-1.1,0.2-2,0.2-2.6s0-1-0.1-1.8c0-0.8-0.1-1.4-0.1-1.8c0-0.9,0.4-1.6,1.1-2.2s1.7-0.9,2.9-0.9s2.3,0.3,2.8,0.9
		c0.6,0.6,1,1.6,1.2,3.2c0.4,2.6,2.4,3.9,6,3.9s2.6-0.4,3.5-1c0.9-0.7,1.3-1.6,1.3-2.7s-0.4-2.1-1.1-2.6c-0.8-0.5-2.6-1.1-5.5-1.8
		l-3.4-0.8c-1.5-0.4-2.9-1.1-4.2-2c-2.5-1.9-3.8-4.4-3.8-7.6s1.1-5.8,3.2-7.8s4.9-3,8.3-3L137.6,0z"/>
	<path d="M167.2,29.1c1.2,0,1.8-1.1,1.8-3.2v-15c0-2.3-0.9-3.5-2.6-3.5s-2.6,0.6-2.6,1.8s0,0.9,0.2,1.6c0.1,0.7,0.2,1.3,0.2,1.6
		c0,3.1-1.3,4.7-3.9,4.7s-2.2-0.4-2.9-1.2c-0.7-0.8-1-1.8-1-3.2s0-1.3,0.2-2.5c0.1-0.9,0.2-1.7,0.2-2.5s0-1.3-0.2-2.6
		c-0.1-0.9-0.1-1.6-0.1-2.1c0-1.5,0.8-2.3,2.3-2.3s1.8,0,3,0.2c2.8,0.3,6.7,0.4,11.8,0.4s9-0.1,11.8-0.4c1.2-0.1,2.2-0.2,3-0.2
		c1.6,0,2.4,0.8,2.4,2.3s0,1.3-0.2,2.3c-0.1,1-0.2,1.8-0.2,2.3s0,1.4,0.2,2.5c0.1,1.5,0.2,2.3,0.2,2.5c0,1.3-0.4,2.4-1.1,3.1
		c-0.7,0.8-1.7,1.2-2.9,1.2c-2.6,0-3.9-1.5-3.9-4.5s0-1,0.2-1.7c0.1-0.7,0.2-1.2,0.2-1.6c0-1.3-0.8-1.9-2.3-1.9s-1.7,0.3-2.2,0.8
		c-0.4,0.5-0.6,1.4-0.6,2.7v15c0,2.2,0.6,3.2,1.8,3.2s0.9,0,1.7-0.2c0.8-0.1,1.3-0.2,1.7-0.2c2.1,0,3.1,1,3.1,3.1s-1.3,4.1-3.9,4.1
		s-2.2,0-3.6-0.2c-2.1-0.2-3.9-0.3-5.4-0.3s-3.3,0.1-5.4,0.3c-1.4,0.1-2.6,0.2-3.6,0.2c-2.6,0-3.9-1.3-3.9-3.8s1.1-3.4,3.2-3.4
		s0.9,0,1.7,0.2c0.7,0.1,1.3,0.2,1.7,0.2L167.2,29.1z"/>
	<path d="M245.9,24.2c-0.9,0-1.4,0.5-1.4,1.5v1.6c0,1.2,0.5,1.7,1.6,1.7s0.9,0,1.6-0.1c0.8-0.1,1.4-0.2,1.9-0.2
		c0.9,0,1.6,0.3,2.1,0.9s0.8,1.5,0.8,2.5s-0.3,2.1-1,2.8c-0.7,0.7-1.6,1-2.7,1s-2.4,0-4.3-0.3c-1.9-0.2-3.4-0.3-4.3-0.3
		c-1.5,0-2.8,0-3.8,0.2l-2.6,0.3c-0.7,0-1.2,0.1-1.4,0.1c-1.1,0-2-0.4-2.7-1c-0.7-0.7-1-1.6-1-2.8s0.3-1.8,0.8-2.5s1.2-1,2-1
		s0.8,0,1.3,0.2c0.6,0.1,1,0.2,1.2,0.2c0.9,0,1.4-1.2,1.4-3.6V10.9c0-1.1,0-1.8-0.1-2.1c-0.2-0.9-0.6-1.4-1.3-1.4s-0.7,0-1.2,0.2
		c-0.5,0.1-1,0.2-1.3,0.2c-0.8,0-1.5-0.3-2-1s-0.8-1.5-0.8-2.5s0.3-2.1,1-2.8c0.7-0.7,1.6-1.1,2.7-1.1h0.2c0,0,0.1,0,0.2,0
		c0.8,0,2.1,0,3.8,0.3c1.7,0.2,3,0.3,3.9,0.3c1.7,0,3.5,0,5.5-0.2c2.5-0.2,3.9-0.4,4.3-0.4c3.8,0,6.9,1.1,9.2,3.2s3.5,5,3.5,8.5
		s-1.2,6.5-3.6,8.6c-2.4,2.1-5.7,3.2-9.9,3.2h-3.4L245.9,24.2z M244.5,15.3c0,1,0,1.6,0.3,1.8c0.2,0.2,0.6,0.4,1.4,0.4h0.8
		c4.1,0.2,6.2-1.4,6.2-4.9s-1.8-5-5.5-5s-1.5,0-1.9,0.2c-0.6,0.2-1,0.6-1.1,1.3c0,0.4-0.1,0.9-0.1,1.6v4.7L244.5,15.3z"/>
</g>
<path d="M257.3,29.2c1.9,0,3.4,1.5,3.4,3.4s-1.5,3.4-3.4,3.4s-3.4-1.5-3.4-3.4S255.4,29.2,257.3,29.2z M257.3,35
	c1.4,0,2.2-0.8,2.2-2.4s-0.8-2.4-2.2-2.4s-2.2,0.8-2.2,2.4S255.9,35,257.3,35z M256,30.7h1.1c1,0,1.6,0.3,1.6,1.1s-0.4,0.9-0.7,0.9
	l0.8,1.4h-0.9l-0.7-1.3h-0.3v1.3h-0.8v-3.5L256,30.7z M257.3,32.2c0.3,0,0.5-0.1,0.5-0.4s-0.2-0.4-0.5-0.4h-0.4v0.8H257.3z"/>
<path class="st0" d="M218.5,0.4h-14.9L193,11v14.9l10.6,10.5h14.9l10.6-10.5V11L218.6,0.4H218.5z M213.2,8.3
	c0.5-0.7,1.2-1.3,2.2-1.1c0.5,0,1,0.3,1.3,0.7c0.9,1.3,1.1,3.2,0.9,4.8c-0.2,1.4-0.8,3-2.3,3.5c-0.3,0-0.8,0.1-1.3,0
	c-1-0.3-1.8-1.3-2-2.2C211.5,12,212.1,10,213.2,8.3L213.2,8.3z M205.4,7.9c0.3-0.4,0.8-0.7,1.3-0.7c0.9-0.2,1.7,0.4,2.2,1.1
	c1,1.6,1.6,3.6,1.1,5.7c-0.2,1-1,2-2,2.2c-0.5,0-0.9,0-1.3,0c-1.5-0.5-2.1-2.1-2.3-3.5C204.2,11.1,204.4,9.3,205.4,7.9L205.4,7.9z
	 M201,20.9c-2.1-0.6-2.8-2.9-3-4.9c0-1.2,0-2.6,0.7-3.4c0.3-0.3,0.6-0.5,1.2-0.6c1.4-0.2,2.4,1.1,3.1,2.1c1,1.6,1.8,4,0.6,5.8
	c-0.6,0.8-1.6,1.2-2.6,0.9L201,20.9z M217.8,29.3c-2,0.6-3.7-0.3-6.8-0.3l0,0c-3.1,0-4.8,0.9-6.8,0.3c-1.3-0.4-2.1-1.9-2.1-3.7
	c0-3,2.2-3.8,3.8-4.9c1.4-1,1.7-2.8,5.1-2.8l0,0l0,0l0,0c3.4,0,3.6,1.8,5.1,2.8c1.6,1.1,3.8,1.9,3.8,4.9
	C219.9,27.4,219.1,28.9,217.8,29.3z M224.1,16c-0.2,1.9-0.9,4.2-3,4.9c-1,0.3-2-0.1-2.6-0.9c-1.2-1.7-0.5-4.2,0.6-5.8
	c0.7-1,1.7-2.3,3.1-2.1c0.5,0,0.9,0.2,1.2,0.6c0.8,0.9,0.8,2.2,0.7,3.4L224.1,16z"/>
</svg>
